<svg height="42" viewBox="0 0 139 42" width="139" xmlns="http://www.w3.org/2000/svg"><g fill="none" fill-rule="evenodd" transform=""><path d="m14.4469699 33.6638422-7.22348497 4.1997942-7.22348493-4.1997942v-8.4002184l7.22348493-4.2000042 7.22335977-4.1999832 7.223485 4.2000042v8.4000084l-7.2233598 4.1999314z" fill="#673ab7"/><path d="m14.5532192 25.1999874 7.2232681-4.1999874 7.2235127 4.2000084v8.4002268l-7.2235127 4.1997984-7.2233042 4.1999664-7.22351277-4.1997984v-8.4002268l7.22351277-4.2000084z" fill="#00bcd4"/><path d="m14.5530023 25.0728449-7.22333197-4.2000294v-8.4000588l7.22333197-4.20002943 7.2233725 4.19993163 7.2236252 4.2001902v8.4000588l-7.2235405 4.1998194-7.223332-4.1998194z" fill="#e91e63"/><path d="m14.4469699 16.6092813 7.2233598 4.1998978v8.3999412l-7.223485 4.1999706-7.22327636-4.1999706-7.22356834-4.1999076v-8.3999412l7.22348493-4.2001806 7.22348497 4.2001806z" fill="#ffeb3b"/><path d="m14.4468802 16.8000191-7.22351344 4.1999809-7.22336676-4.2000168v-8.4000336l7.22336676-4.2000168 7.22359614-4.1999328 7.2233668 4.2000168v8.3998236l-7.2233668 4.2002268z" fill="#8bc34a"/><text fill="#072a44" font-family="Comfortaa-Regular, Comfortaa" font-size="16" letter-spacing=".5"><tspan x="39" y="29">Blocknative</tspan></text></g></svg>